<svg width="16" height="15" viewBox="0 0 16 15" fill="none" xmlns="http://www.w3.org/2000/svg">
<path fill-rule="evenodd" clip-rule="evenodd" d="M8.24984 0.166748C4.19984 0.166748 0.916504 3.45008 0.916504 7.50008C0.916504 11.5501 4.19984 14.8334 8.24984 14.8334C12.2998 14.8334 15.5832 11.5501 15.5832 7.50008C15.5832 3.45008 12.2998 0.166748 8.24984 0.166748ZM11.4285 6.26008C11.487 6.19318 11.5316 6.11524 11.5596 6.03086C11.5875 5.94648 11.5983 5.85736 11.5914 5.76874C11.5844 5.68012 11.5597 5.59379 11.5189 5.51483C11.478 5.43588 11.4218 5.36588 11.3535 5.30898C11.2852 5.25207 11.2063 5.20939 11.1212 5.18346C11.0362 5.15752 10.9469 5.14886 10.8584 5.15797C10.77 5.16708 10.6843 5.19378 10.6063 5.2365C10.5284 5.27923 10.4598 5.33711 10.4045 5.40675L7.53784 8.84608L6.0545 7.36208C5.92877 7.24064 5.76037 7.17345 5.58557 7.17497C5.41077 7.17648 5.24356 7.2466 5.11996 7.3702C4.99635 7.49381 4.92624 7.66102 4.92472 7.83581C4.9232 8.01061 4.9904 8.17901 5.11184 8.30475L7.11184 10.3047C7.17734 10.3702 7.25577 10.4213 7.34211 10.4548C7.42846 10.4883 7.52084 10.5034 7.61335 10.4992C7.70586 10.495 7.79649 10.4715 7.87945 10.4304C7.9624 10.3892 8.03587 10.3312 8.09517 10.2601L11.4285 6.26008Z" fill="#10B981"/>
</svg>
