<svg width="17" height="17" viewBox="0 0 17 17" fill="none" xmlns="http://www.w3.org/2000/svg">
<g clip-path="url(#clip0_754_19078)">
<path d="M14.2386 8.5847H11.6823V7.30653H14.2386V8.5847ZM14.2386 9.31505H11.6823V10.5932H14.2386V9.31505ZM14.2386 3.2895H11.6823V4.56764H14.2386V3.2895ZM14.2386 5.29801H11.6823V6.57615H14.2386V5.29801ZM14.2386 11.3236H11.6823V12.6017H14.2386V11.3236ZM16.0043 13.8434C15.9312 14.2232 15.4747 14.2323 15.1698 14.2451H9.49119V15.8884H8.35727L0 14.4276V1.648L8.40659 0.185425H9.49119V1.64069H14.9744C15.283 1.65347 15.6227 1.63155 15.8911 1.81596C16.0791 2.0862 16.0609 2.42949 16.0737 2.73988L16.0664 12.2457C16.0573 12.777 16.1156 13.3193 16.0043 13.8434ZM6.69566 10.9785C6.19172 9.95599 5.67865 8.94074 5.17651 7.91821C5.67316 6.92309 6.16253 5.92432 6.65004 4.92553C6.23555 4.94562 5.82106 4.97117 5.40841 5.0004C5.09981 5.75084 4.7401 6.48122 4.49909 7.25724C4.2745 6.52504 3.97688 5.82022 3.70482 5.10629C3.30311 5.1282 2.90139 5.15194 2.49971 5.17567C2.9233 6.11058 3.37434 7.03262 3.78516 7.97299C3.30129 8.88596 2.84846 9.81173 2.37919 10.7302C2.77905 10.7466 3.17895 10.763 3.57881 10.7685C3.86368 10.0418 4.21789 9.34246 4.46622 8.60112C4.68899 9.39724 5.06694 10.1331 5.37737 10.8945C5.81741 10.9256 6.25561 10.9529 6.69566 10.9785ZM15.2028 2.50788H9.49119V3.2895H10.9519V4.56764H9.49119V5.29801H10.9519V6.57615H9.49119V7.30653H10.9519V8.5847H9.49119V9.31505H10.9519V10.5932H9.49119V11.3236H10.9519V12.6017H9.49119V13.4461H15.2028V2.50788Z" fill="#111827"/>
</g>
<defs>
<clipPath id="clip0_754_19078">
<rect width="16.0737" height="16.0737" fill="white"/>
</clipPath>
</defs>
</svg>
