<svg width="19" height="19" viewBox="0 0 19 19" fill="none" xmlns="http://www.w3.org/2000/svg">
<g clip-path="url(#clip0_754_18255)">
<path d="M16.8308 10.1475H13.8091V8.63667H16.8308V10.1475ZM16.8308 11.0109H13.8091V12.5217H16.8308V11.0109ZM16.8308 3.88831H13.8091V5.39914H16.8308V3.88831ZM16.8308 6.26249H13.8091V7.77332H16.8308V6.26249ZM16.8308 13.385H13.8091V14.8959H16.8308V13.385ZM18.918 16.3636C18.8316 16.8125 18.292 16.8233 17.9316 16.8384H11.2191V18.7809H9.87878L0 17.0542V1.94797L9.93708 0.219116H11.2191V1.93932H17.7007C18.0654 1.95442 18.4669 1.92852 18.7841 2.1465C19.0065 2.46594 18.9849 2.87173 19 3.23863L18.9914 14.475C18.9806 15.1031 19.0496 15.7442 18.918 16.3636ZM7.91465 12.9771C7.31897 11.7685 6.71249 10.5684 6.11893 9.35971C6.706 8.18342 7.28446 7.00282 7.86073 5.82219C7.37078 5.84594 6.88082 5.87614 6.39306 5.91069C6.02827 6.79775 5.60307 7.6611 5.31818 8.57841C5.0527 7.71291 4.7009 6.87977 4.37931 6.03586C3.90446 6.06176 3.42961 6.08982 2.9548 6.11787C3.45551 7.22299 3.98866 8.31289 4.47428 9.42447C3.90231 10.5036 3.36705 11.598 2.81233 12.6836C3.285 12.703 3.7577 12.7225 4.23036 12.7289C4.56709 11.8699 4.98579 11.0433 5.27933 10.167C5.54266 11.108 5.98942 11.9778 6.35635 12.8778C6.87652 12.9146 7.39449 12.9469 7.91465 12.9771ZM17.9706 2.96439H11.2191V3.88831H12.9458V5.39914H11.2191V6.26249H12.9458V7.77332H11.2191V8.63667H12.9458V10.1475H11.2191V11.0109H12.9458V12.5217H11.2191V13.385H12.9458V14.8959H11.2191V15.894H17.9706V2.96439Z" fill="white"/>
</g>
<defs>
<clipPath id="clip0_754_18255">
<rect width="19" height="19" fill="white"/>
</clipPath>
</defs>
</svg>
