<svg width="36" height="36" viewBox="0 0 36 36" fill="none" xmlns="http://www.w3.org/2000/svg">
<rect width="36" height="36" rx="18" fill="#10B981"/>
<path fill-rule="evenodd" clip-rule="evenodd" d="M18.1599 14.9371C18.5229 14.9371 18.816 14.6436 18.816 14.281V9.65603C18.816 9.2939 18.5229 9 18.1599 9C17.7969 9 17.5039 9.2939 17.5039 9.65603V14.281C17.5039 14.6436 17.7969 14.9371 18.1599 14.9371" fill="white"/>
<path fill-rule="evenodd" clip-rule="evenodd" d="M20.8623 11.2117C20.5255 11.0818 20.145 11.255 20.0182 11.5943C19.8914 11.9329 20.0619 12.3116 20.3987 12.4393C22.6248 13.2777 24.0069 15.3473 24.0069 17.8415C24.0069 21.0652 21.3827 23.688 18.1595 23.688C14.9362 23.688 12.3121 21.0652 12.3121 17.8415C12.3121 15.4863 13.716 13.3717 15.8852 12.4546C16.2176 12.3129 16.3751 11.9285 16.2351 11.5948C16.0952 11.2611 15.7103 11.105 15.3735 11.2458C12.7188 12.3689 11 14.958 11 17.8415C11 21.789 14.2145 25.0001 18.1595 25.0001C22.1087 25.0001 25.3189 21.789 25.3189 17.8415C25.3189 14.7875 23.6132 12.2469 20.8623 11.2117" fill="white"/>
</svg>
