<svg width="12" height="13" viewBox="0 0 12 13" fill="none" xmlns="http://www.w3.org/2000/svg">
<path d="M6 11.75C4.60761 11.75 3.27226 11.1969 2.28769 10.2123C1.30312 9.22774 0.75 7.89239 0.75 6.5C0.75 5.10761 1.30312 3.77226 2.28769 2.78769C3.27226 1.80312 4.60761 1.25 6 1.25C7.39239 1.25 8.72774 1.80312 9.71231 2.78769C10.6969 3.77226 11.25 5.10761 11.25 6.5C11.25 7.89239 10.6969 9.22774 9.71231 10.2123C8.72774 11.1969 7.39239 11.75 6 11.75ZM6 12.5C7.5913 12.5 9.11742 11.8679 10.2426 10.7426C11.3679 9.61742 12 8.0913 12 6.5C12 4.9087 11.3679 3.38258 10.2426 2.25736C9.11742 1.13214 7.5913 0.5 6 0.5C4.4087 0.5 2.88258 1.13214 1.75736 2.25736C0.632141 3.38258 0 4.9087 0 6.5C0 8.0913 0.632141 9.61742 1.75736 10.7426C2.88258 11.8679 4.4087 12.5 6 12.5Z" fill="#6B7280"/>
<path d="M3.94132 4.8395C3.94029 4.86372 3.94423 4.8879 3.9529 4.91054C3.96156 4.93318 3.97476 4.95381 3.99169 4.97116C4.00862 4.98851 4.02892 5.00222 4.05134 5.01143C4.07376 5.02065 4.09783 5.02518 4.12207 5.02475H4.74082C4.84432 5.02475 4.92682 4.94 4.94032 4.83725C5.00782 4.34525 5.34532 3.98675 5.94682 3.98675C6.46132 3.98675 6.93232 4.244 6.93232 4.86275C6.93232 5.339 6.65182 5.558 6.20857 5.891C5.70382 6.25775 5.30407 6.686 5.33257 7.38125L5.33482 7.544C5.33561 7.59321 5.35571 7.64013 5.39079 7.67465C5.42587 7.70916 5.47311 7.72851 5.52232 7.7285H6.13057C6.1803 7.7285 6.22799 7.70875 6.26315 7.67358C6.29832 7.63842 6.31807 7.59073 6.31807 7.541V7.46225C6.31807 6.92375 6.52282 6.767 7.07557 6.34775C7.53232 6.0005 8.00857 5.615 8.00857 4.80575C8.00857 3.6725 7.05157 3.125 6.00382 3.125C5.05357 3.125 4.01257 3.5675 3.94132 4.8395ZM5.10907 9.16175C5.10907 9.5615 5.42782 9.857 5.86657 9.857C6.32332 9.857 6.63757 9.5615 6.63757 9.16175C6.63757 8.74775 6.32257 8.45675 5.86582 8.45675C5.42782 8.45675 5.10907 8.74775 5.10907 9.16175Z" fill="#6B7280"/>
</svg>
