<svg width="24" height="24" viewBox="0 0 24 24" fill="none" xmlns="http://www.w3.org/2000/svg">
<g clip-path="url(#clip0_754_20814)">
<path d="M14.6249 4.86035C13.6873 4.48279 12.6846 4.29361 11.6739 4.3036C10.6632 4.31358 9.66435 4.52255 8.73441 4.91855C7.80447 5.31455 6.96164 5.88984 6.25403 6.61157C5.54642 7.33331 4.9879 8.18734 4.61035 9.12493C3.84785 11.0185 3.86878 13.1373 4.66855 15.0154C5.46831 16.8935 6.98139 18.377 8.87493 19.1395M8.87493 14.8749V19.6666H4.08326" stroke="#111827" stroke-width="2" stroke-linecap="round" stroke-linejoin="round"/>
<path d="M17.8545 7.36182V7.37182" stroke="#111827" stroke-width="2" stroke-linecap="round" stroke-linejoin="round"/>
<path d="M12.7083 19.6094V19.6194" stroke="#111827" stroke-width="2" stroke-linecap="round" stroke-linejoin="round"/>
<path d="M16.3884 18.1045V18.1145" stroke="#111827" stroke-width="2" stroke-linecap="round" stroke-linejoin="round"/>
<path d="M18.813 14.9707V14.9807" stroke="#111827" stroke-width="2" stroke-linecap="round" stroke-linejoin="round"/>
<path d="M19.3591 11.0415V11.0515" stroke="#111827" stroke-width="2" stroke-linecap="round" stroke-linejoin="round"/>
</g>
<defs>
<clipPath id="clip0_754_20814">
<rect width="23" height="23" fill="white" transform="translate(0.25 0.5)"/>
</clipPath>
</defs>
</svg>
