<svg width="13" height="16" viewBox="0 0 13 16" fill="none" xmlns="http://www.w3.org/2000/svg">
<path d="M12.2944 2.83985H11.3714V13.6207C11.3714 13.816 11.3353 13.9991 11.2632 14.17C11.1911 14.3408 11.0925 14.4898 10.9675 14.6167C10.8425 14.7437 10.6959 14.8438 10.5276 14.917C10.3593 14.9902 10.179 15.0269 9.98674 15.0269H2.60213C2.40982 15.0269 2.22953 14.9902 2.06126 14.917C1.89299 14.8438 1.74636 14.7437 1.62136 14.6167C1.49636 14.4898 1.3978 14.3408 1.32568 14.17C1.25357 13.9991 1.21751 13.816 1.21751 13.6207V2.83985H0.294434V1.90239H3.98674V0.964928C3.98674 0.833097 4.01078 0.711032 4.05886 0.598732C4.10693 0.486432 4.17184 0.388779 4.25357 0.305775C4.3353 0.22277 4.43386 0.154414 4.54924 0.100705C4.66463 0.0469962 4.78482 0.0225832 4.90982 0.0274658H7.67905C7.80886 0.0274658 7.92905 0.0518789 8.03963 0.100705C8.1502 0.149531 8.24636 0.215446 8.32809 0.298451C8.40982 0.381455 8.47713 0.481549 8.53001 0.598732C8.5829 0.715914 8.60693 0.83798 8.60213 0.964928V1.90239H12.2944V2.83985ZM4.90982 1.90239H7.67905V0.964928H4.90982V1.90239ZM10.4483 2.83985H2.14059V13.6207C2.14059 13.7476 2.18626 13.8575 2.27761 13.9502C2.36895 14.043 2.47713 14.0894 2.60213 14.0894H9.98674C10.1117 14.0894 10.2199 14.043 10.3113 13.9502C10.4026 13.8575 10.4483 13.7476 10.4483 13.6207V2.83985ZM4.90982 12.2145H3.98674V4.71478H4.90982V12.2145ZM6.75597 12.2145H5.8329V4.71478H6.75597V12.2145ZM8.60213 12.2145H7.67905V4.71478H8.60213V12.2145Z" fill="black"/>
</svg>
