<svg
  width="48"
  height="48"
  viewBox="0 0 48 48"
  fill="none"
  xmlns="http://www.w3.org/2000/svg"
>
<circle cx="24" cy="24" r="24" fill="#10B981" />
<path
    d="M28.455 19.4552C28.6663 19.2541 28.9475 19.1428 29.2392 19.1451C29.531 19.1473 29.8104 19.2627 30.0187 19.4671C30.2269 19.6714 30.3476 19.9486 30.3553 20.2403C30.363 20.5319 30.2571 20.8152 30.06 21.0302L24.075 28.5152C23.9721 28.6261 23.8479 28.715 23.7098 28.7768C23.5717 28.8385 23.4226 28.8718 23.2714 28.8746C23.1201 28.8774 22.9699 28.8497 22.8296 28.7931C22.6894 28.7365 22.5619 28.6522 22.455 28.5452L18.486 24.5762C18.3755 24.4732 18.2868 24.349 18.2253 24.211C18.1638 24.073 18.1308 23.9241 18.1281 23.773C18.1254 23.622 18.1532 23.4719 18.2098 23.3318C18.2664 23.1917 18.3506 23.0645 18.4574 22.9577C18.5643 22.8508 18.6915 22.7666 18.8316 22.71C18.9717 22.6535 19.1217 22.6257 19.2728 22.6283C19.4238 22.631 19.5728 22.6641 19.7108 22.7256C19.8488 22.787 19.973 22.8757 20.076 22.9862L23.217 26.1257L28.4265 19.4882C28.4359 19.4767 28.4459 19.4657 28.4565 19.4552H28.455Z"
    fill="white"
  />
</svg>
