<svg width="21" height="21" viewBox="0 0 21 21" fill="none" xmlns="http://www.w3.org/2000/svg">
<g clip-path="url(#clip0_126_19379)">
<path d="M0.673595 10.3799C0.67313 12.0603 1.1122 13.7011 1.94708 15.1473L0.59375 20.0885L5.65049 18.7626C7.04912 19.524 8.61618 19.923 10.2086 19.9231H10.2128C15.4698 19.9231 19.7491 15.6453 19.7513 10.3874C19.7524 7.83961 18.761 5.4438 16.96 3.64132C15.1592 1.83899 12.7642 0.845889 10.2124 0.844727C4.95484 0.844727 0.675843 5.12225 0.673672 10.3799" fill="url(#paint0_linear_126_19379)"/>
<path d="M0.332946 10.3772C0.332403 12.1181 0.787209 13.8175 1.65186 15.3155L0.25 20.4339L5.48806 19.0605C6.93132 19.8474 8.55628 20.2622 10.2098 20.2629H10.214C15.6596 20.2629 20.0926 15.8312 20.095 10.3851C20.0959 7.74574 19.0689 5.2638 17.2035 3.39674C15.3378 1.52992 12.8572 0.501085 10.214 0.5C4.76752 0.5 0.335194 4.93101 0.333023 10.3772H0.332946ZM3.45233 15.0575L3.25674 14.7471C2.43457 13.4398 2.00062 11.9291 2.00124 10.3778C2.00302 5.85109 5.68705 2.16822 10.2171 2.16822C12.4109 2.16915 14.4726 3.02434 16.0233 4.57597C17.574 6.12775 18.4272 8.19054 18.4267 10.3845C18.4247 14.9112 14.7405 18.5946 10.214 18.5946H10.2108C8.7369 18.5938 7.2914 18.198 6.03078 17.45L5.73078 17.2721L2.6224 18.0871L3.45233 15.0574V15.0575Z" fill="url(#paint1_linear_126_19379)"/>
<path d="M7.74452 6.24776C7.55956 5.83668 7.36491 5.82838 7.18902 5.82117C7.04499 5.81497 6.88034 5.81544 6.71584 5.81544C6.55119 5.81544 6.28367 5.87738 6.05755 6.12427C5.83119 6.37141 5.19336 6.96862 5.19336 8.18327C5.19336 9.398 6.07809 10.5719 6.20142 10.7368C6.32491 10.9013 7.90941 13.4737 10.4189 14.4633C12.5044 15.2857 12.9289 15.1222 13.3815 15.0809C13.8342 15.0399 14.8423 14.4839 15.0479 13.9074C15.2537 13.3309 15.2537 12.8368 15.192 12.7336C15.1303 12.6307 14.9657 12.5689 14.7188 12.4455C14.4718 12.322 13.258 11.7247 13.0317 11.6423C12.8054 11.56 12.6408 11.5189 12.4762 11.7661C12.3115 12.013 11.8387 12.5689 11.6946 12.7336C11.5506 12.8986 11.4065 12.9192 11.1597 12.7957C10.9127 12.6718 10.1175 12.4114 9.17421 11.5704C8.44026 10.916 7.94475 10.1078 7.80072 9.86063C7.65669 9.61381 7.7853 9.48001 7.9091 9.35699C8.02003 9.24637 8.15607 9.06869 8.27964 8.92459C8.40274 8.7804 8.44382 8.67753 8.52615 8.51288C8.60855 8.34807 8.56731 8.20389 8.50568 8.0804C8.44382 7.95691 7.96406 6.73598 7.74452 6.24784" fill="white"/>
</g>
<defs>
<linearGradient id="paint0_linear_126_19379" x1="10.1725" y1="20.0885" x2="10.1725" y2="0.844727" gradientUnits="userSpaceOnUse">
<stop stop-color="#1FAF38"/>
<stop offset="1" stop-color="#60D669"/>
</linearGradient>
<linearGradient id="paint1_linear_126_19379" x1="10.1725" y1="20.4339" x2="10.1725" y2="0.5" gradientUnits="userSpaceOnUse">
<stop stop-color="#F9F9F9"/>
<stop offset="1" stop-color="white"/>
</linearGradient>
<clipPath id="clip0_126_19379">
<rect width="19.845" height="20" fill="white" transform="translate(0.25 0.5)"/>
</clipPath>
</defs>
</svg>
